<svg xmlns="http://www.w3.org/2000/svg" xmlns:xlink="http://www.w3.org/1999/xlink" width="500" zoomAndPan="magnify" viewBox="0 0 375 374.999991" height="500" preserveAspectRatio="xMidYMid meet" version="1.0"><defs><clipPath id="2dbe465c40"><path d="M 28 17.554688 L 374.824219 17.554688 L 374.824219 366.878906 L 28 366.878906 Z M 28 17.554688 " clip-rule="nonzero"/></clipPath></defs><path fill="#5271ff" d="M 44.648438 148.011719 C 46.207031 144.863281 48.558594 142.511719 51.304688 140.523438 C 52.496094 139.761719 53.257812 139.363281 54.449219 138.570312 L 45.808594 177.472656 C 44.253906 184.925781 45.808594 193.179688 50.144531 199.472656 C 54.054688 205.371094 60.742188 209.714844 67.792969 211.269531 L 47.796875 302.828125 L 84.28125 292.621094 L 100.40625 216.769531 L 120.042969 219.917969 L 129.046875 258.027344 L 131 255.675781 C 134.941406 250.96875 140.039062 247.421875 145.933594 245.46875 L 159.675781 241.125 L 152.222656 208.917969 C 149.476562 197.519531 140.4375 188.871094 129.046875 187.3125 L 107.855469 183.765625 L 115.703125 146.820312 C 116.5 148.011719 117.261719 148.773438 118.054688 149.96875 C 123.550781 157.820312 132.191406 163.320312 142.027344 164.515625 L 171.460938 168.425781 C 174.605469 168.824219 177.753906 168.058594 180.5 166.867188 C 184.40625 164.515625 187.15625 160.96875 187.949219 155.867188 C 189.140625 148.011719 183.644531 140.523438 175.402344 139.363281 L 145.933594 135.421875 C 144.378906 135.023438 142.789062 134.261719 142.027344 133.066406 C 116.894531 97.3125 111.796875 95.359375 104.3125 94.960938 L 80.375 93.769531 C 75.675781 93.371094 71.335938 93.371094 35.609375 115.007812 C 28.160156 119.316406 21.871094 126.011719 17.929688 133.863281 L 3.429688 164.515625 C -0.113281 171.574219 2.632812 180.222656 9.6875 184.164062 C 16.769531 187.675781 25.777344 184.925781 29.320312 177.867188 L 44.648438 148.011719 " fill-opacity="1" fill-rule="nonzero"/><path fill="#5271ff" d="M 65.707031 52.246094 C 67.429688 34.550781 83.15625 21.597656 100.871094 23.320312 C 118.550781 25.042969 131.496094 40.816406 129.777344 58.542969 C 128.054688 76.238281 112.292969 89.195312 94.613281 87.472656 C 76.898438 85.75 63.953125 69.976562 65.707031 52.246094 " fill-opacity="1" fill-rule="nonzero"/><g clip-path="url(#2dbe465c40)"><path fill="#5271ff" d="M 374.0625 348.027344 L 344.230469 256.46875 C 343.832031 255.277344 343.433594 254.117188 342.671875 252.921875 L 289.664062 172.765625 C 288.871094 171.175781 287.679688 170.414062 286.121094 169.21875 L 286.121094 26.167969 C 286.121094 21.464844 282.179688 17.554688 277.480469 17.554688 C 272.777344 17.554688 268.839844 21.464844 268.839844 26.167969 L 268.839844 30.90625 L 215.828125 30.90625 C 211.128906 30.90625 207.585938 34.453125 207.585938 39.160156 L 207.585938 82.367188 C 207.585938 87.105469 211.128906 90.621094 215.828125 90.621094 L 269.234375 90.621094 L 269.234375 169.617188 C 268.042969 170.414062 267.25 171.175781 266.488281 172.367188 L 218.179688 238.773438 C 216.226562 241.125 213.875 243.113281 210.730469 243.878906 L 151.03125 262.367188 C 148.285156 263.128906 145.933594 264.71875 143.980469 267.074219 L 119.246094 298.121094 C 117.261719 300.476562 114.910156 302.03125 112.160156 302.828125 L 47.398438 320.921875 C 43.457031 322.078125 40.3125 324.832031 38.359375 328.375 L 29.71875 346.433594 C 25.015625 355.878906 32.066406 366.878906 42.300781 366.878906 L 360.71875 366.878906 C 370.15625 366.484375 377.207031 357.074219 374.0625 348.027344 " fill-opacity="1" fill-rule="nonzero"/></g></svg>