<svg xmlns="http://www.w3.org/2000/svg" xmlns:xlink="http://www.w3.org/1999/xlink" width="500" zoomAndPan="magnify" viewBox="0 0 375 374.999991" height="500" preserveAspectRatio="xMidYMid meet" version="1.0"><defs><clipPath id="6784c58089"><path d="M 7.210938 21 L 164 21 L 164 166 L 7.210938 166 Z M 7.210938 21 " clip-rule="nonzero"/></clipPath><clipPath id="8af2aacbaa"><path d="M 210 21 L 367.960938 21 L 367.960938 166 L 210 166 Z M 210 21 " clip-rule="nonzero"/></clipPath><clipPath id="f68335abbe"><path d="M 7.210938 210 L 164 210 L 164 354 L 7.210938 354 Z M 7.210938 210 " clip-rule="nonzero"/></clipPath><clipPath id="b55d9eb296"><path d="M 210 210 L 367.960938 210 L 367.960938 354 L 210 354 Z M 210 210 " clip-rule="nonzero"/></clipPath></defs><g clip-path="url(#6784c58089)"><path fill="#5271ff" d="M 163.792969 67.605469 C 163.792969 87.453125 163.785156 107.296875 163.765625 127.140625 C 163.765625 137.125 164.542969 147.757812 160.804688 157.242188 C 156.976562 166.960938 148.128906 164.945312 139.261719 164.8125 C 115.582031 164.8125 91.917969 164.5 68.234375 164.5 L 32.8125 164.5 C 28.644531 164.765625 24.585938 164.230469 20.636719 162.882812 C 19.269531 162.210938 17.992188 161.402344 16.800781 160.457031 C 15.609375 159.507812 14.535156 158.445312 13.578125 157.265625 C 12.617188 156.085938 11.796875 154.816406 11.113281 153.457031 C 10.429688 152.097656 9.898438 150.683594 9.523438 149.210938 C 8.03125 143.285156 7.4375 137.269531 7.746094 131.167969 L 7.746094 46.992188 C 7.527344 42.550781 7.949219 38.167969 9.019531 33.847656 C 9.289062 32.777344 9.667969 31.742188 10.160156 30.75 C 10.652344 29.757812 11.242188 28.828125 11.933594 27.960938 C 12.625 27.097656 13.398438 26.3125 14.257812 25.613281 C 15.117188 24.914062 16.039062 24.3125 17.027344 23.808594 C 20.113281 22.710938 23.285156 22.289062 26.550781 22.539062 C 67.988281 22.855469 110.503906 18.996094 151.75 23.917969 C 153.578125 23.96875 155.269531 24.480469 156.816406 25.453125 C 158.152344 26.664062 159.054688 28.136719 159.523438 29.875 C 163.765625 41.851562 163.792969 54.890625 163.792969 67.605469 Z M 163.792969 67.605469 " fill-opacity="1" fill-rule="nonzero"/></g><g clip-path="url(#8af2aacbaa)"><path fill="#5271ff" d="M 366.964844 67.605469 C 366.964844 87.453125 366.957031 107.296875 366.941406 127.140625 C 366.941406 137.125 367.714844 147.757812 363.976562 157.242188 C 360.148438 166.960938 351.300781 164.945312 342.433594 164.8125 C 318.753906 164.8125 295.089844 164.5 271.410156 164.5 L 235.984375 164.5 C 231.820312 164.765625 227.761719 164.230469 223.808594 162.882812 C 222.445312 162.210938 221.164062 161.402344 219.976562 160.457031 C 218.785156 159.507812 217.710938 158.445312 216.75 157.265625 C 215.789062 156.085938 214.96875 154.816406 214.285156 153.457031 C 213.601562 152.097656 213.070312 150.683594 212.695312 149.210938 C 211.207031 143.285156 210.613281 137.269531 210.917969 131.167969 L 210.917969 46.992188 C 210.699219 42.550781 211.125 38.171875 212.191406 33.851562 C 212.460938 32.777344 212.84375 31.742188 213.335938 30.75 C 213.828125 29.757812 214.417969 28.828125 215.113281 27.960938 C 215.804688 27.097656 216.578125 26.3125 217.4375 25.613281 C 218.300781 24.914062 219.222656 24.3125 220.210938 23.808594 C 223.296875 22.710938 226.472656 22.289062 229.734375 22.539062 C 271.171875 22.855469 313.6875 18.996094 354.933594 23.917969 C 356.761719 23.96875 358.453125 24.480469 360 25.453125 C 361.335938 26.664062 362.238281 28.136719 362.707031 29.878906 C 366.941406 41.851562 366.964844 54.890625 366.964844 67.605469 Z M 366.964844 67.605469 " fill-opacity="1" fill-rule="nonzero"/></g><g clip-path="url(#f68335abbe)"><path fill="#5271ff" d="M 163.792969 256.332031 C 163.792969 276.175781 163.785156 296.023438 163.765625 315.867188 C 163.765625 325.847656 164.542969 336.484375 160.804688 345.96875 C 156.976562 355.6875 148.128906 353.671875 139.261719 353.535156 C 115.582031 353.535156 91.917969 353.222656 68.234375 353.222656 L 32.8125 353.222656 C 28.644531 353.492188 24.585938 352.953125 20.636719 351.609375 C 19.269531 350.9375 17.992188 350.128906 16.800781 349.179688 C 15.609375 348.234375 14.535156 347.171875 13.578125 345.992188 C 12.617188 344.808594 11.796875 343.542969 11.113281 342.183594 C 10.429688 340.824219 9.898438 339.410156 9.523438 337.9375 C 8.03125 332.011719 7.4375 325.996094 7.746094 319.894531 L 7.746094 235.71875 C 7.527344 231.277344 7.949219 226.894531 9.019531 222.578125 C 9.289062 221.503906 9.667969 220.46875 10.160156 219.476562 C 10.652344 218.484375 11.242188 217.554688 11.933594 216.691406 C 12.625 215.824219 13.398438 215.039062 14.257812 214.339844 C 15.117188 213.640625 16.039062 213.039062 17.027344 212.535156 C 20.113281 211.4375 23.285156 211.015625 26.550781 211.265625 C 67.988281 211.582031 110.503906 207.722656 151.75 212.640625 C 153.578125 212.695312 155.269531 213.207031 156.816406 214.179688 C 158.152344 215.386719 159.054688 216.863281 159.523438 218.601562 C 163.765625 230.578125 163.792969 243.613281 163.792969 256.332031 Z M 163.792969 256.332031 " fill-opacity="1" fill-rule="nonzero"/></g><g clip-path="url(#b55d9eb296)"><path fill="#5271ff" d="M 366.964844 256.332031 C 366.964844 276.175781 366.957031 296.023438 366.941406 315.867188 C 366.941406 325.847656 367.714844 336.484375 363.976562 345.96875 C 360.148438 355.6875 351.300781 353.671875 342.433594 353.535156 C 318.753906 353.535156 295.089844 353.222656 271.410156 353.222656 L 235.984375 353.222656 C 231.820312 353.492188 227.761719 352.953125 223.808594 351.609375 C 222.445312 350.9375 221.164062 350.128906 219.976562 349.179688 C 218.785156 348.234375 217.710938 347.171875 216.75 345.992188 C 215.789062 344.808594 214.96875 343.542969 214.285156 342.183594 C 213.601562 340.824219 213.070312 339.410156 212.695312 337.9375 C 211.207031 332.011719 210.613281 325.996094 210.917969 319.894531 L 210.917969 235.71875 C 210.699219 231.277344 211.125 226.894531 212.191406 222.578125 C 212.460938 221.503906 212.84375 220.46875 213.332031 219.476562 C 213.824219 218.484375 214.417969 217.554688 215.105469 216.691406 C 215.796875 215.824219 216.574219 215.039062 217.433594 214.339844 C 218.289062 213.640625 219.214844 213.039062 220.203125 212.535156 C 223.285156 211.4375 226.460938 211.015625 229.726562 211.265625 C 271.160156 211.582031 313.675781 207.722656 354.925781 212.640625 C 356.753906 212.695312 358.441406 213.207031 359.992188 214.179688 C 361.328125 215.386719 362.230469 216.863281 362.695312 218.601562 C 366.941406 230.578125 366.964844 243.613281 366.964844 256.332031 Z M 366.964844 256.332031 " fill-opacity="1" fill-rule="nonzero"/></g><path fill="#ffffff" d="M 61.871094 125.894531 C 68.355469 99.921875 77.765625 75.050781 90.09375 51.28125 L 77.976562 49.691406 C 88.101562 77.6875 99.726562 105.042969 112.847656 131.765625 C 113.070312 132.136719 113.328125 132.484375 113.617188 132.808594 C 113.90625 133.128906 114.226562 133.421875 114.574219 133.683594 C 114.921875 133.945312 115.289062 134.167969 115.679688 134.359375 C 116.070312 134.546875 116.476562 134.699219 116.898438 134.808594 C 117.316406 134.917969 117.746094 134.988281 118.179688 135.015625 C 118.613281 135.042969 119.042969 135.027344 119.476562 134.972656 C 119.90625 134.914062 120.328125 134.816406 120.738281 134.679688 C 121.152344 134.539062 121.546875 134.363281 121.921875 134.148438 C 122.292969 133.921875 122.636719 133.664062 122.957031 133.371094 C 123.277344 133.082031 123.566406 132.761719 123.828125 132.414062 C 124.085938 132.066406 124.308594 131.699219 124.496094 131.308594 C 124.683594 130.917969 124.832031 130.515625 124.945312 130.097656 C 125.054688 129.679688 125.125 129.253906 125.152344 128.820312 C 125.179688 128.390625 125.167969 127.957031 125.113281 127.527344 C 125.058594 127.101562 124.964844 126.679688 124.828125 126.269531 C 124.695312 125.855469 124.519531 125.460938 124.308594 125.085938 C 111.6875 99.394531 100.507812 73.09375 90.769531 46.175781 C 88.964844 41.195312 81.46875 39.167969 78.648438 44.585938 C 65.75 69.359375 55.894531 95.289062 49.085938 122.371094 C 47.011719 130.644531 59.796875 134.171875 61.871094 125.894531 Z M 61.871094 125.894531 " fill-opacity="1" fill-rule="nonzero"/><path fill="#ffffff" d="M 98.726562 81.964844 C 88.230469 81.660156 77.730469 81.609375 67.226562 81.808594 C 66.792969 81.808594 66.359375 81.851562 65.933594 81.933594 C 65.507812 82.019531 65.09375 82.144531 64.691406 82.3125 C 64.289062 82.476562 63.90625 82.683594 63.542969 82.925781 C 63.183594 83.164062 62.847656 83.441406 62.539062 83.746094 C 62.230469 84.054688 61.957031 84.390625 61.714844 84.75 C 61.472656 85.113281 61.269531 85.496094 61.101562 85.898438 C 60.933594 86.296875 60.808594 86.710938 60.722656 87.140625 C 60.640625 87.566406 60.597656 87.996094 60.597656 88.429688 C 60.597656 88.867188 60.640625 89.296875 60.722656 89.722656 C 60.808594 90.148438 60.933594 90.566406 61.101562 90.964844 C 61.269531 91.367188 61.472656 91.75 61.714844 92.113281 C 61.957031 92.472656 62.230469 92.808594 62.539062 93.113281 C 62.847656 93.421875 63.183594 93.699219 63.542969 93.9375 C 63.90625 94.179688 64.289062 94.382812 64.691406 94.550781 C 65.09375 94.71875 65.507812 94.84375 65.933594 94.929688 C 66.359375 95.011719 66.792969 95.054688 67.226562 95.054688 C 77.726562 94.859375 88.226562 94.910156 98.726562 95.210938 C 99.160156 95.207031 99.589844 95.164062 100.015625 95.074219 C 100.441406 94.988281 100.855469 94.859375 101.253906 94.691406 C 101.65625 94.523438 102.035156 94.320312 102.398438 94.078125 C 102.757812 93.835938 103.089844 93.5625 103.398438 93.253906 C 103.707031 92.949219 103.980469 92.613281 104.222656 92.253906 C 104.464844 91.894531 104.667969 91.515625 104.835938 91.113281 C 105.003906 90.714844 105.132812 90.300781 105.222656 89.875 C 105.308594 89.449219 105.355469 89.023438 105.359375 88.585938 C 105.351562 88.15625 105.300781 87.726562 105.210938 87.304688 C 105.121094 86.882812 104.988281 86.472656 104.820312 86.074219 C 104.648438 85.675781 104.445312 85.296875 104.203125 84.9375 C 103.960938 84.578125 103.683594 84.246094 103.378906 83.941406 C 103.074219 83.636719 102.738281 83.359375 102.382812 83.117188 C 102.023438 82.875 101.644531 82.671875 101.246094 82.5 C 100.847656 82.332031 100.433594 82.203125 100.011719 82.113281 C 99.589844 82.023438 99.160156 81.972656 98.726562 81.964844 Z M 98.726562 81.964844 " fill-opacity="1" fill-rule="nonzero"/><path fill="#ffffff" d="M 244.714844 55.910156 C 245.09375 77.21875 245.160156 98.527344 244.914062 119.839844 C 244.816406 128.371094 258.078125 128.375 258.175781 119.839844 C 258.421875 98.53125 258.355469 77.222656 257.976562 55.910156 C 257.824219 47.394531 244.5625 47.371094 244.714844 55.910156 Z M 244.714844 55.910156 " fill-opacity="1" fill-rule="nonzero"/><path fill="#ffffff" d="M 252.308594 61.59375 C 260.074219 59.121094 268.03125 57.835938 276.179688 57.738281 C 282.476562 57.6875 290.015625 57.738281 295.765625 60.679688 C 300.011719 62.851562 300.332031 66.089844 296.476562 69.398438 C 293.996094 71.257812 291.242188 72.554688 288.226562 73.289062 C 284.25 74.445312 280.359375 75.839844 276.554688 77.476562 C 269.527344 80.65625 274.613281 91.339844 281.667969 89.582031 C 285.613281 88.585938 289.621094 88.214844 293.683594 88.464844 C 295.882812 88.601562 301.03125 88.65625 302.535156 90.550781 C 303.765625 92.101562 303.230469 96.484375 303.226562 98.265625 C 303.4375 99.726562 303.308594 101.15625 302.84375 102.554688 C 302.375 103.953125 301.617188 105.171875 300.574219 106.214844 C 295.417969 110.3125 287.207031 111.007812 280.90625 111.414062 C 272.328125 111.972656 263.71875 111.726562 255.148438 112.507812 C 254.714844 112.519531 254.285156 112.570312 253.863281 112.664062 C 253.441406 112.753906 253.03125 112.886719 252.636719 113.054688 C 252.238281 113.226562 251.859375 113.433594 251.503906 113.675781 C 251.144531 113.917969 250.8125 114.191406 250.507812 114.496094 C 250.199219 114.800781 249.925781 115.132812 249.683594 115.492188 C 249.441406 115.847656 249.234375 116.226562 249.066406 116.621094 C 248.894531 117.019531 248.761719 117.429688 248.671875 117.851562 C 248.578125 118.273438 248.527344 118.699219 248.515625 119.132812 C 248.519531 119.566406 248.5625 119.996094 248.652344 120.421875 C 248.738281 120.84375 248.863281 121.257812 249.03125 121.660156 C 249.199219 122.058594 249.40625 122.4375 249.648438 122.800781 C 249.890625 123.160156 250.164062 123.492188 250.472656 123.800781 C 250.777344 124.109375 251.113281 124.382812 251.472656 124.625 C 251.835938 124.867188 252.214844 125.070312 252.617188 125.238281 C 253.015625 125.40625 253.429688 125.53125 253.855469 125.621094 C 254.28125 125.707031 254.710938 125.75 255.148438 125.753906 C 266.402344 124.730469 277.75 125.410156 288.957031 123.820312 C 298.613281 122.453125 310.160156 118.976562 314.449219 109.316406 C 316.3125 104.398438 316.949219 99.328125 316.355469 94.105469 C 316.074219 89.105469 315.136719 84.074219 311.230469 80.558594 C 307.058594 76.804688 300.875 75.894531 295.496094 75.367188 C 289.625 74.851562 283.84375 75.332031 278.140625 76.8125 L 283.25 88.917969 C 291.808594 85.039062 301.429688 84.394531 307.832031 76.671875 C 313.933594 69.308594 314.3125 58.65625 306.652344 52.152344 C 299.644531 46.207031 289.984375 45.035156 281.136719 44.597656 C 270.097656 44.097656 259.3125 45.507812 248.773438 48.824219 C 240.65625 51.359375 244.121094 64.152344 252.300781 61.601562 Z M 252.308594 61.59375 " fill-opacity="1" fill-rule="nonzero"/><path fill="#ffffff" d="M 60.828125 258.015625 C 70.144531 256.691406 79.507812 254.921875 88.898438 254.253906 C 92.878906 253.839844 96.839844 253.988281 100.78125 254.691406 C 103.285156 255.21875 108.4375 256.519531 109.039062 258.773438 C 109.449219 260.304688 106.265625 263.527344 104.765625 264.867188 C 102.074219 267.214844 99.03125 268.957031 95.644531 270.089844 C 90.300781 271.925781 86.558594 274.941406 86.0625 280.910156 C 85.65625 285.84375 85.988281 290.945312 85.984375 295.898438 C 85.984375 304.421875 99.246094 304.433594 99.246094 295.898438 L 99.246094 287 C 99.457031 285.515625 99.457031 284.035156 99.246094 282.550781 C 99.355469 281.703125 99.339844 281.472656 99.203125 281.867188 C 98.9375 282.890625 98.433594 283.390625 97.679688 283.359375 C 98.144531 283.5625 100.375 282.441406 100.863281 282.261719 C 102.234375 281.730469 103.605469 281.152344 104.929688 280.515625 C 106.832031 279.589844 108.632812 278.503906 110.339844 277.261719 C 119.019531 270.964844 127.050781 259.410156 118.597656 249.441406 C 111.941406 241.597656 99.4375 240.378906 89.878906 240.933594 C 78.980469 241.566406 68.089844 243.683594 57.292969 245.234375 C 56.875 245.351562 56.472656 245.507812 56.085938 245.707031 C 55.695312 245.902344 55.332031 246.132812 54.988281 246.402344 C 54.648438 246.667969 54.335938 246.96875 54.050781 247.296875 C 53.765625 247.625 53.519531 247.980469 53.304688 248.355469 C 53.089844 248.734375 52.914062 249.128906 52.773438 249.542969 C 52.636719 249.953125 52.542969 250.375 52.488281 250.804688 C 52.429688 251.238281 52.417969 251.667969 52.449219 252.101562 C 52.476562 252.535156 52.550781 252.960938 52.664062 253.378906 C 52.789062 253.792969 52.953125 254.191406 53.152344 254.574219 C 53.355469 254.957031 53.589844 255.316406 53.859375 255.65625 C 54.128906 255.992188 54.429688 256.300781 54.757812 256.582031 C 55.085938 256.863281 55.4375 257.109375 55.816406 257.320312 C 56.191406 257.535156 56.585938 257.710938 56.996094 257.851562 C 57.402344 257.988281 57.824219 258.085938 58.25 258.144531 C 58.679688 258.203125 59.109375 258.222656 59.542969 258.199219 C 59.972656 258.175781 60.398438 258.109375 60.820312 258.007812 Z M 60.828125 258.015625 " fill-opacity="1" fill-rule="nonzero"/><path fill="#ffffff" d="M 93.128906 330.417969 C 101.664062 330.417969 101.679688 317.171875 93.128906 317.171875 C 84.582031 317.171875 84.582031 330.417969 93.128906 330.417969 Z M 93.128906 330.417969 " fill-opacity="1" fill-rule="nonzero"/><path fill="#ffffff" d="M 325.75 245.636719 C 312.269531 244.421875 298.734375 243.65625 285.195312 243.671875 C 274.757812 243.671875 263.035156 244.792969 255.109375 252.363281 C 245.988281 261.078125 245.597656 275.414062 249.929688 286.542969 C 250.992188 289.324219 252.335938 291.964844 253.957031 294.464844 C 255.582031 296.960938 257.445312 299.261719 259.558594 301.367188 C 261.667969 303.46875 263.976562 305.328125 266.480469 306.945312 C 268.984375 308.558594 271.632812 309.894531 274.417969 310.949219 C 288.980469 316.691406 305.347656 314.050781 320.308594 311.648438 C 320.726562 311.53125 321.128906 311.371094 321.515625 311.175781 C 321.90625 310.976562 322.269531 310.746094 322.609375 310.476562 C 322.953125 310.210938 323.265625 309.910156 323.550781 309.582031 C 323.832031 309.253906 324.082031 308.898438 324.296875 308.523438 C 324.511719 308.144531 324.6875 307.75 324.824219 307.335938 C 324.960938 306.925781 325.058594 306.503906 325.113281 306.074219 C 325.167969 305.644531 325.183594 305.210938 325.152344 304.777344 C 325.125 304.34375 325.050781 303.917969 324.941406 303.5 C 324.816406 303.085938 324.652344 302.6875 324.453125 302.304688 C 324.25 301.921875 324.015625 301.558594 323.746094 301.222656 C 323.476562 300.886719 323.175781 300.574219 322.847656 300.292969 C 322.519531 300.015625 322.164062 299.765625 321.789062 299.554688 C 321.414062 299.339844 321.019531 299.164062 320.609375 299.027344 C 320.199219 298.886719 319.78125 298.789062 319.351562 298.730469 C 318.921875 298.671875 318.492188 298.65625 318.0625 298.679688 C 317.628906 298.703125 317.203125 298.765625 316.785156 298.871094 C 298.292969 301.84375 273.328125 304.726562 263.410156 284.550781 C 260.105469 277.824219 258.347656 267.472656 264.472656 261.742188 C 269.699219 256.855469 278.988281 256.898438 286.03125 256.929688 C 299.292969 256.988281 312.53125 257.703125 325.734375 258.894531 C 326.167969 258.890625 326.597656 258.847656 327.023438 258.757812 C 327.449219 258.671875 327.863281 258.542969 328.261719 258.375 C 328.664062 258.210938 329.042969 258.003906 329.40625 257.761719 C 329.765625 257.519531 330.101562 257.246094 330.40625 256.941406 C 330.714844 256.632812 330.988281 256.300781 331.230469 255.9375 C 331.472656 255.578125 331.679688 255.199219 331.847656 254.796875 C 332.015625 254.398438 332.140625 253.984375 332.230469 253.558594 C 332.316406 253.132812 332.359375 252.703125 332.363281 252.269531 C 332.355469 251.839844 332.304688 251.410156 332.214844 250.988281 C 332.125 250.566406 331.996094 250.152344 331.824219 249.757812 C 331.65625 249.359375 331.449219 248.980469 331.207031 248.621094 C 330.964844 248.261719 330.691406 247.929688 330.382812 247.625 C 330.078125 247.320312 329.746094 247.046875 329.386719 246.804688 C 329.027344 246.5625 328.648438 246.355469 328.25 246.1875 C 327.851562 246.015625 327.441406 245.886719 327.019531 245.796875 C 326.59375 245.703125 326.167969 245.65625 325.734375 245.648438 Z M 325.75 245.636719 " fill-opacity="1" fill-rule="nonzero"/></svg>