<svg xmlns="http://www.w3.org/2000/svg" xmlns:xlink="http://www.w3.org/1999/xlink" width="500" zoomAndPan="magnify" viewBox="0 0 375 374.999991" height="500" preserveAspectRatio="xMidYMid meet" version="1.0"><defs><clipPath id="32557aa6d4"><path d="M 0 52.03125 L 104 52.03125 L 104 177 L 0 177 Z M 0 52.03125 " clip-rule="nonzero"/></clipPath><clipPath id="d679e07535"><path d="M 135 52.03125 L 230 52.03125 L 230 178 L 135 178 Z M 135 52.03125 " clip-rule="nonzero"/></clipPath><clipPath id="1712204b20"><path d="M 270 52.03125 L 375 52.03125 L 375 177 L 270 177 Z M 270 52.03125 " clip-rule="nonzero"/></clipPath><clipPath id="280d092d6b"><path d="M 104 198 L 282 198 L 282 322.78125 L 104 322.78125 Z M 104 198 " clip-rule="nonzero"/></clipPath></defs><g clip-path="url(#32557aa6d4)"><path fill="#5271ff" d="M 103.203125 162.429688 L 61.582031 58.359375 C 59.503906 54.199219 56.382812 52.117188 52.214844 52.117188 C 48.046875 52.117188 43.886719 54.195312 42.847656 58.359375 L 1.140625 162.429688 C 0.859375 163.074219 0.652344 163.742188 0.511719 164.433594 C 0.371094 165.121094 0.308594 165.816406 0.316406 166.519531 C 0.324219 167.222656 0.40625 167.917969 0.558594 168.605469 C 0.714844 169.289062 0.941406 169.953125 1.234375 170.589844 C 1.53125 171.230469 1.886719 171.828125 2.308594 172.394531 C 2.730469 172.957031 3.207031 173.46875 3.738281 173.929688 C 4.269531 174.394531 4.839844 174.792969 5.457031 175.136719 C 6.070312 175.476562 6.714844 175.75 7.386719 175.957031 C 8.035156 176.238281 8.703125 176.445312 9.390625 176.585938 C 10.082031 176.722656 10.777344 176.789062 11.480469 176.78125 C 12.183594 176.773438 12.878906 176.691406 13.566406 176.535156 C 14.253906 176.382812 14.914062 176.15625 15.554688 175.863281 C 16.191406 175.566406 16.792969 175.207031 17.355469 174.789062 C 17.921875 174.367188 18.433594 173.890625 18.894531 173.359375 C 19.359375 172.832031 19.761719 172.257812 20.101562 171.644531 C 20.445312 171.027344 20.71875 170.386719 20.925781 169.714844 L 34.460938 134.328125 L 69.871094 134.328125 L 83.40625 169.714844 C 85.488281 173.875 88.613281 175.957031 92.785156 175.957031 C 94.269531 176.015625 95.660156 175.683594 96.953125 174.957031 C 103.203125 173.878906 105.28125 167.636719 103.203125 162.429688 Z M 42.796875 114.554688 L 52.175781 90.578125 L 61.554688 114.554688 Z M 42.796875 114.554688 " fill-opacity="1" fill-rule="nonzero"/></g><g clip-path="url(#d679e07535)"><path fill="#5271ff" d="M 217.75 114.554688 C 225.039062 108.3125 229.207031 98.949219 229.207031 88.582031 C 229.207031 68.808594 212.542969 52.15625 192.757812 52.15625 L 145.890625 52.15625 C 139.644531 52.15625 135.472656 56.320312 135.472656 62.566406 L 135.472656 166.597656 C 135.472656 172.839844 139.644531 177.007812 145.890625 177.007812 L 192.757812 177.007812 C 212.542969 177.007812 229.207031 160.351562 229.207031 140.582031 C 229.207031 130.171875 225.039062 120.800781 217.75 114.554688 Z M 208.382812 88.582031 C 208.359375 89.597656 208.242188 90.605469 208.027344 91.601562 C 207.808594 92.597656 207.5 93.5625 207.101562 94.5 C 206.699219 95.433594 206.214844 96.324219 205.644531 97.167969 C 205.074219 98.011719 204.425781 98.792969 203.707031 99.515625 C 202.988281 100.234375 202.203125 100.882812 201.359375 101.453125 C 200.515625 102.023438 199.625 102.507812 198.691406 102.910156 C 197.753906 103.3125 196.785156 103.621094 195.789062 103.835938 C 194.792969 104.050781 193.789062 104.171875 192.769531 104.195312 L 156.308594 104.195312 L 156.308594 72.9375 L 192.757812 72.9375 C 193.773438 72.960938 194.78125 73.078125 195.773438 73.296875 C 196.769531 73.511719 197.734375 73.816406 198.667969 74.21875 C 199.605469 74.617188 200.492188 75.101562 201.335938 75.667969 C 202.179688 76.238281 202.960938 76.882812 203.679688 77.597656 C 204.398438 78.316406 205.046875 79.097656 205.617188 79.9375 C 206.1875 80.777344 206.675781 81.664062 207.078125 82.597656 C 207.480469 83.53125 207.789062 84.496094 208.007812 85.488281 C 208.226562 86.480469 208.347656 87.484375 208.375 88.5 Z M 192.769531 156.226562 L 156.308594 156.226562 L 156.308594 124.964844 L 192.757812 124.964844 C 193.769531 124.992188 194.765625 125.113281 195.75 125.332031 C 196.734375 125.550781 197.691406 125.863281 198.617188 126.265625 C 199.539062 126.667969 200.417969 127.15625 201.25 127.730469 C 202.078125 128.304688 202.847656 128.953125 203.550781 129.675781 C 204.257812 130.398438 204.882812 131.179688 205.4375 132.023438 C 205.992188 132.867188 206.457031 133.757812 206.835938 134.691406 C 207.21875 135.625 207.503906 136.589844 207.699219 137.578125 C 207.890625 138.566406 207.988281 139.566406 207.988281 140.578125 C 207.988281 141.585938 207.890625 142.585938 207.699219 143.574219 C 207.503906 144.5625 207.21875 145.527344 206.835938 146.460938 C 206.457031 147.394531 205.992188 148.285156 205.4375 149.128906 C 204.882812 149.972656 204.257812 150.753906 203.550781 151.476562 C 202.847656 152.199219 202.078125 152.847656 201.25 153.421875 C 200.417969 153.996094 199.539062 154.484375 198.617188 154.886719 C 197.691406 155.289062 196.734375 155.601562 195.75 155.820312 C 194.765625 156.039062 193.769531 156.160156 192.757812 156.1875 Z M 192.769531 156.226562 " fill-opacity="1" fill-rule="nonzero"/></g><g clip-path="url(#1712204b20)"><path fill="#5271ff" d="M 364.582031 176.996094 L 333.339844 176.996094 C 331.292969 176.996094 329.253906 176.894531 327.214844 176.695312 C 325.179688 176.496094 323.160156 176.195312 321.152344 175.796875 C 319.144531 175.398438 317.160156 174.902344 315.203125 174.308594 C 313.246094 173.714844 311.320312 173.027344 309.429688 172.242188 C 307.539062 171.460938 305.691406 170.585938 303.886719 169.625 C 302.082031 168.660156 300.328125 167.609375 298.628906 166.472656 C 296.925781 165.335938 295.285156 164.121094 293.703125 162.824219 C 292.121094 161.527344 290.605469 160.152344 289.160156 158.707031 C 287.710938 157.261719 286.339844 155.75 285.039062 154.167969 C 283.742188 152.585938 282.523438 150.945312 281.386719 149.246094 C 280.25 147.546875 279.199219 145.792969 278.234375 143.988281 C 277.269531 142.1875 276.398438 140.339844 275.613281 138.449219 C 274.832031 136.5625 274.140625 134.636719 273.546875 132.679688 C 272.953125 130.722656 272.457031 128.742188 272.058594 126.738281 C 271.660156 124.730469 271.359375 122.710938 271.160156 120.675781 C 270.957031 118.640625 270.859375 116.601562 270.859375 114.554688 C 270.859375 112.511719 270.957031 110.472656 271.160156 108.4375 C 271.359375 106.402344 271.660156 104.378906 272.058594 102.375 C 272.457031 100.367188 272.953125 98.386719 273.546875 96.429688 C 274.140625 94.472656 274.832031 92.550781 275.613281 90.660156 C 276.398438 88.773438 277.269531 86.925781 278.234375 85.121094 C 279.199219 83.320312 280.25 81.566406 281.386719 79.867188 C 282.523438 78.164062 283.742188 76.523438 285.039062 74.945312 C 286.339844 73.363281 287.710938 71.851562 289.160156 70.40625 C 290.605469 68.957031 292.121094 67.585938 293.703125 66.289062 C 295.285156 64.992188 296.925781 63.773438 298.628906 62.640625 C 300.328125 61.503906 302.082031 60.453125 303.886719 59.488281 C 305.691406 58.523438 307.539062 57.652344 309.429688 56.867188 C 311.320312 56.085938 313.246094 55.398438 315.203125 54.804688 C 317.160156 54.210938 319.144531 53.714844 321.152344 53.316406 C 323.160156 52.917969 325.179688 52.617188 327.214844 52.417969 C 329.253906 52.214844 331.292969 52.117188 333.339844 52.117188 L 364.582031 52.117188 C 370.832031 52.117188 375 56.28125 375 62.527344 C 375 68.769531 370.832031 72.9375 364.582031 72.9375 L 333.339844 72.9375 C 331.964844 72.914062 330.589844 72.960938 329.214844 73.078125 C 327.84375 73.191406 326.476562 73.375 325.125 73.625 C 323.769531 73.875 322.429688 74.191406 321.105469 74.574219 C 319.78125 74.957031 318.480469 75.40625 317.203125 75.917969 C 315.921875 76.429688 314.671875 77.003906 313.449219 77.640625 C 312.226562 78.277344 311.039062 78.972656 309.886719 79.726562 C 308.734375 80.480469 307.621094 81.289062 306.550781 82.152344 C 305.476562 83.015625 304.449219 83.929688 303.46875 84.898438 C 302.484375 85.863281 301.554688 86.875 300.671875 87.933594 C 299.792969 88.992188 298.964844 90.089844 298.191406 91.230469 C 297.421875 92.371094 296.707031 93.546875 296.050781 94.757812 C 295.394531 95.96875 294.800781 97.210938 294.269531 98.480469 C 293.738281 99.75 293.269531 101.042969 292.867188 102.359375 C 292.460938 103.675781 292.125 105.011719 291.851562 106.359375 C 291.582031 107.710938 291.378906 109.070312 291.242188 110.441406 C 291.105469 111.8125 291.039062 113.183594 291.039062 114.5625 C 291.039062 115.9375 291.105469 117.3125 291.242188 118.683594 C 291.378906 120.050781 291.582031 121.410156 291.851562 122.761719 C 292.125 124.113281 292.460938 125.445312 292.867188 126.761719 C 293.269531 128.078125 293.738281 129.371094 294.269531 130.640625 C 294.800781 131.910156 295.394531 133.152344 296.050781 134.363281 C 296.707031 135.574219 297.421875 136.75 298.191406 137.890625 C 298.964844 139.03125 299.792969 140.128906 300.671875 141.1875 C 301.554688 142.246094 302.484375 143.257812 303.46875 144.226562 C 304.449219 145.191406 305.476562 146.105469 306.550781 146.96875 C 307.621094 147.835938 308.734375 148.644531 309.886719 149.398438 C 311.039062 150.152344 312.226562 150.847656 313.449219 151.480469 C 314.671875 152.117188 315.921875 152.691406 317.203125 153.203125 C 318.480469 153.71875 319.78125 154.164062 321.105469 154.546875 C 322.429688 154.929688 323.769531 155.246094 325.125 155.496094 C 326.476562 155.746094 327.84375 155.929688 329.214844 156.046875 C 330.589844 156.160156 331.964844 156.207031 333.339844 156.1875 L 364.582031 156.1875 C 370.832031 156.1875 375 160.351562 375 166.597656 C 375 172.839844 370.832031 176.996094 364.582031 176.996094 Z M 364.582031 176.996094 " fill-opacity="1" fill-rule="nonzero"/></g><g clip-path="url(#280d092d6b)"><path fill="#5271ff" d="M 177.132812 322.695312 C 175.75 322.734375 174.417969 322.480469 173.144531 321.9375 C 171.871094 321.394531 170.773438 320.605469 169.84375 319.578125 L 107.363281 257.140625 C 106.875 256.664062 106.441406 256.144531 106.058594 255.582031 C 105.675781 255.019531 105.355469 254.421875 105.089844 253.796875 C 104.824219 253.171875 104.625 252.523438 104.488281 251.855469 C 104.351562 251.191406 104.28125 250.519531 104.277344 249.835938 C 104.277344 249.15625 104.339844 248.484375 104.46875 247.816406 C 104.601562 247.148438 104.796875 246.5 105.054688 245.871094 C 105.3125 245.242188 105.632812 244.644531 106.007812 244.078125 C 106.386719 243.515625 106.816406 242.992188 107.296875 242.507812 C 107.777344 242.027344 108.300781 241.597656 108.867188 241.222656 C 109.433594 240.84375 110.03125 240.527344 110.664062 240.269531 C 111.292969 240.007812 111.941406 239.816406 112.609375 239.683594 C 113.277344 239.554688 113.949219 239.488281 114.628906 239.492188 C 115.3125 239.496094 115.984375 239.566406 116.652344 239.703125 C 117.320312 239.839844 117.964844 240.039062 118.59375 240.300781 C 119.21875 240.566406 119.816406 240.890625 120.378906 241.273438 C 120.941406 241.65625 121.460938 242.089844 121.9375 242.574219 L 177.132812 297.730469 L 263.53125 201.972656 C 263.972656 201.453125 264.460938 200.980469 264.996094 200.558594 C 265.53125 200.136719 266.105469 199.769531 266.714844 199.460938 C 267.320312 199.152344 267.953125 198.90625 268.613281 198.71875 C 269.269531 198.535156 269.9375 198.417969 270.617188 198.367188 C 271.296875 198.316406 271.976562 198.332031 272.65625 198.414062 C 273.332031 198.496094 273.996094 198.644531 274.644531 198.859375 C 275.292969 199.070312 275.914062 199.347656 276.507812 199.683594 C 277.101562 200.019531 277.65625 200.414062 278.171875 200.859375 C 278.6875 201.304688 279.152344 201.796875 279.570312 202.335938 C 279.992188 202.875 280.351562 203.453125 280.65625 204.0625 C 280.960938 204.671875 281.203125 205.308594 281.378906 205.964844 C 281.558594 206.625 281.671875 207.292969 281.714844 207.972656 C 281.761719 208.65625 281.742188 209.332031 281.652344 210.007812 C 281.5625 210.6875 281.410156 211.347656 281.1875 211.992188 C 280.96875 212.636719 280.6875 213.257812 280.347656 213.847656 C 280.003906 214.4375 279.605469 214.988281 279.15625 215.5 L 185.46875 319.570312 C 184.339844 320.613281 183.054688 321.402344 181.613281 321.945312 C 180.171875 322.484375 178.679688 322.738281 177.144531 322.695312 Z M 177.132812 322.695312 " fill-opacity="1" fill-rule="nonzero"/></g></svg>