<svg xmlns="http://www.w3.org/2000/svg" xmlns:xlink="http://www.w3.org/1999/xlink" width="500" zoomAndPan="magnify" viewBox="0 0 375 374.999991" height="500" preserveAspectRatio="xMidYMid meet" version="1.0"><defs><clipPath id="5237e36021"><path d="M 51.804688 4.507812 L 320.304688 4.507812 L 320.304688 371 L 51.804688 371 Z M 51.804688 4.507812 " clip-rule="nonzero"/></clipPath></defs><path fill="#5271ff" d="M 76.207031 309.804688 L 76.207031 364.734375 L 100.609375 352.527344 L 125.011719 364.734375 L 125.011719 309.804688 L 76.207031 309.804688 " fill-opacity="1" fill-rule="nonzero"/><path fill="#5271ff" d="M 301.929688 83.964844 L 301.929688 328.113281 L 100.609375 328.113281 C 77.023438 328.113281 57.90625 308.984375 57.90625 285.386719 L 57.90625 53.445312 L 106.710938 83.964844 L 301.929688 83.964844 " fill-opacity="1" fill-rule="nonzero"/><path fill="#5271ff" d="M 106.710938 53.445312 L 106.710938 328.113281 L 100.609375 328.113281 C 77.023438 328.113281 57.90625 308.984375 57.90625 285.386719 L 57.90625 53.445312 L 106.710938 53.445312 " fill-opacity="1" fill-rule="nonzero"/><path fill="#5271ff" d="M 106.710938 53.445312 L 106.710938 151.105469 L 100.609375 151.105469 C 77.023438 151.105469 57.90625 131.976562 57.90625 108.378906 L 57.90625 53.445312 L 106.710938 53.445312 " fill-opacity="1" fill-rule="nonzero"/><path fill="#5271ff" d="M 106.710938 273.179688 L 106.710938 328.113281 L 100.609375 328.113281 C 77.023438 328.113281 57.90625 308.984375 57.90625 285.386719 L 57.90625 230.453125 C 57.90625 254.054688 77.023438 273.179688 100.609375 273.179688 L 106.710938 273.179688 " fill-opacity="1" fill-rule="nonzero"/><path fill="#5271ff" d="M 301.617188 71.757812 L 277.527344 71.757812 C 269.386719 59.550781 269.386719 47.34375 277.527344 35.136719 L 301.929688 35.136719 C 305.300781 35.136719 308.351562 33.769531 310.5625 31.566406 C 312.785156 29.328125 314.15625 26.242188 314.128906 22.828125 C 314.074219 16.078125 308.367188 10.722656 301.617188 10.722656 L 100.609375 10.722656 C 76.835938 10.722656 57.601562 30.152344 57.90625 54.011719 C 58.210938 77.488281 77.777344 96.171875 101.242188 96.171875 L 301.929688 96.171875 C 305.300781 96.171875 308.351562 94.808594 310.5625 92.601562 C 312.785156 90.367188 314.15625 87.28125 314.128906 83.867188 C 314.074219 77.113281 308.367188 71.757812 301.617188 71.757812 " fill-opacity="1" fill-rule="nonzero"/><path fill="#d2d3d3" d="M 277.527344 71.757812 L 100.609375 71.757812 C 90.507812 71.757812 82.308594 63.554688 82.308594 53.445312 C 82.308594 43.335938 90.507812 35.136719 100.609375 35.136719 L 277.527344 35.136719 C 269.386719 47.34375 269.386719 59.550781 277.527344 71.757812 " fill-opacity="1" fill-rule="nonzero"/><g clip-path="url(#5237e36021)"><path fill="#ffffff" d="M 112.8125 322.011719 L 112.8125 102.277344 L 295.828125 102.277344 L 295.828125 322.011719 Z M 118.914062 354.859375 L 103.339844 347.070312 C 101.621094 346.210938 99.601562 346.210938 97.882812 347.070312 L 82.308594 354.859375 L 82.308594 330.640625 C 87.964844 332.9375 94.140625 334.21875 100.609375 334.21875 L 118.914062 334.21875 Z M 64.007812 285.386719 L 64.007812 262.703125 C 72.957031 272.859375 86.042969 279.285156 100.609375 279.285156 L 100.609375 322.011719 C 80.425781 322.011719 64.007812 305.582031 64.007812 285.386719 Z M 64.007812 140.628906 C 72.957031 150.785156 86.042969 157.210938 100.609375 157.210938 L 100.609375 267.078125 C 80.425781 267.078125 64.007812 250.648438 64.007812 230.453125 Z M 64.007812 85.445312 C 72.972656 95.589844 86.070312 102.078125 100.609375 102.261719 L 100.609375 145.003906 C 80.425781 145.003906 64.007812 128.574219 64.007812 108.378906 Z M 74.558594 27.71875 C 81.488281 20.691406 90.742188 16.824219 100.609375 16.824219 L 301.617188 16.824219 C 305.125 16.824219 308.003906 19.539062 308.027344 22.878906 C 308.042969 24.53125 307.40625 26.085938 306.257812 27.242188 C 305.097656 28.394531 303.5625 29.03125 301.929688 29.03125 L 100.816406 29.03125 C 94.25 29.03125 88.085938 31.605469 83.464844 36.28125 C 78.847656 40.957031 76.34375 47.148438 76.417969 53.722656 C 76.566406 67.03125 87.511719 77.863281 100.816406 77.863281 L 301.617188 77.863281 C 305.125 77.863281 308.003906 80.578125 308.027344 83.914062 C 308.042969 85.570312 307.40625 87.125 306.257812 88.277344 C 305.097656 89.429688 303.5625 90.070312 301.929688 90.070312 L 101.242188 90.070312 C 80.976562 90.070312 64.273438 73.863281 64.007812 53.941406 L 64.007812 53.902344 C 63.886719 44.03125 67.636719 34.734375 74.558594 27.71875 Z M 267.574219 65.652344 L 100.816406 65.652344 C 94.164062 65.652344 88.691406 60.238281 88.617188 53.582031 C 88.578125 50.296875 89.832031 47.199219 92.140625 44.863281 C 94.449219 42.527344 97.535156 41.238281 100.816406 41.238281 L 267.574219 41.238281 C 264.617188 49.332031 264.617188 57.5625 267.574219 65.652344 Z M 301.617188 65.652344 L 280.964844 65.652344 C 276.386719 57.386719 276.386719 49.507812 280.964844 41.238281 L 301.929688 41.238281 C 306.8125 41.238281 311.40625 39.339844 314.882812 35.875 C 318.367188 32.371094 320.269531 27.722656 320.230469 22.78125 C 320.148438 12.765625 311.800781 4.617188 301.617188 4.617188 L 100.609375 4.617188 C 87.453125 4.617188 75.117188 9.777344 65.878906 19.140625 C 56.789062 28.351562 51.816406 40.515625 51.816406 53.445312 L 51.804688 53.445312 L 51.804688 285.386719 C 51.804688 300.773438 58.960938 314.507812 70.109375 323.464844 L 70.109375 364.734375 C 70.109375 366.851562 71.203125 368.816406 73 369.929688 C 74.800781 371.039062 77.046875 371.140625 78.9375 370.195312 L 100.609375 359.355469 L 122.285156 370.195312 C 123.144531 370.625 124.082031 370.839844 125.011719 370.839844 C 126.128906 370.839844 127.242188 370.535156 128.222656 369.929688 C 130.015625 368.816406 131.113281 366.851562 131.113281 364.734375 L 131.113281 334.21875 L 301.929688 334.21875 C 305.296875 334.21875 308.027344 331.484375 308.027344 328.113281 L 308.027344 101.238281 C 310.574219 100.34375 312.910156 98.878906 314.882812 96.910156 C 318.367188 93.410156 320.269531 88.761719 320.230469 83.820312 C 320.148438 73.800781 311.800781 65.652344 301.617188 65.652344 " fill-opacity="1" fill-rule="nonzero"/></g><path fill="#ffffff" d="M 163.320312 151.105469 L 167.386719 163.3125 L 155.847656 163.3125 L 159.914062 151.105469 Z M 171.453125 175.519531 L 174.128906 183.554688 C 174.980469 186.113281 177.363281 187.730469 179.917969 187.730469 C 180.554688 187.730469 181.207031 187.628906 181.847656 187.414062 C 185.042969 186.347656 186.773438 182.890625 185.707031 179.695312 L 173.503906 143.070312 C 172.671875 140.578125 170.339844 138.898438 167.71875 138.898438 L 155.515625 138.898438 C 152.890625 138.898438 150.558594 140.578125 149.726562 143.070312 L 137.527344 179.695312 C 136.460938 182.890625 138.1875 186.347656 141.382812 187.414062 C 144.582031 188.480469 148.035156 186.75 149.101562 183.554688 L 151.78125 175.519531 L 171.453125 175.519531 " fill-opacity="1" fill-rule="nonzero"/><path fill="#ffffff" d="M 198.21875 175.519531 L 222.621094 175.519531 C 225.992188 175.519531 228.722656 172.789062 228.722656 169.417969 C 228.722656 166.046875 225.992188 163.3125 222.621094 163.3125 L 198.21875 163.3125 C 194.851562 163.3125 192.117188 166.046875 192.117188 169.417969 C 192.117188 172.789062 194.851562 175.519531 198.21875 175.519531 " fill-opacity="1" fill-rule="nonzero"/><path fill="#ffffff" d="M 265.324219 175.519531 L 252.324219 175.519531 L 270.402344 148.386719 C 271.648438 146.511719 271.765625 144.105469 270.707031 142.125 C 269.640625 140.136719 267.574219 138.898438 265.324219 138.898438 L 240.921875 138.898438 C 237.554688 138.898438 234.824219 141.632812 234.824219 145.003906 C 234.824219 148.375 237.554688 151.105469 240.921875 151.105469 L 253.925781 151.105469 L 235.847656 178.238281 C 234.597656 180.113281 234.484375 182.523438 235.542969 184.503906 C 236.605469 186.488281 238.675781 187.726562 240.921875 187.726562 L 265.324219 187.726562 C 268.695312 187.726562 271.425781 184.996094 271.425781 181.625 C 271.425781 178.253906 268.695312 175.519531 265.324219 175.519531 " fill-opacity="1" fill-rule="nonzero"/><path fill="#ffffff" d="M 222.621094 224.351562 L 186.019531 224.351562 C 182.648438 224.351562 179.917969 227.082031 179.917969 230.453125 C 179.917969 233.824219 182.648438 236.558594 186.019531 236.558594 L 222.621094 236.558594 C 225.992188 236.558594 228.722656 233.824219 228.722656 230.453125 C 228.722656 227.082031 225.992188 224.351562 222.621094 224.351562 " fill-opacity="1" fill-rule="nonzero"/><path fill="#ffffff" d="M 247.023438 260.972656 L 161.617188 260.972656 C 158.246094 260.972656 155.515625 263.707031 155.515625 267.078125 C 155.515625 270.449219 158.246094 273.179688 161.617188 273.179688 L 247.023438 273.179688 C 250.394531 273.179688 253.125 270.449219 253.125 267.078125 C 253.125 263.707031 250.394531 260.972656 247.023438 260.972656 " fill-opacity="1" fill-rule="nonzero"/></svg>