<svg xmlns="http://www.w3.org/2000/svg" xmlns:xlink="http://www.w3.org/1999/xlink" width="500" zoomAndPan="magnify" viewBox="0 0 375 374.999991" height="500" preserveAspectRatio="xMidYMid meet" version="1.0"><path fill="#5271ff" d="M 326.929688 113.78125 C 323.273438 83.789062 310.4375 58.296875 288.785156 38.015625 C 267.683594 18.238281 235.425781 5.027344 202.5 2.671875 C 165.386719 0.0195312 132.132812 11.304688 108.875 34.445312 C 92.273438 50.964844 81.824219 69.546875 76.921875 91.261719 C 72.800781 109.535156 73.484375 126.144531 74.035156 139.488281 C 74.390625 148.066406 74.695312 155.472656 73.378906 159.792969 C 71.035156 167.503906 67.441406 173.179688 63.96875 178.667969 C 59.402344 185.878906 55.09375 192.6875 55.09375 202.367188 C 55.09375 212.726562 62.1875 219.273438 68.445312 225.046875 C 72.875 229.132812 77.054688 232.996094 78.9375 237.894531 C 80.335938 241.539062 80.199219 247.191406 80.042969 253.734375 C 79.699219 268.136719 79.226562 287.859375 96.589844 301.148438 C 107.886719 309.789062 129.582031 312.773438 161.101562 310.011719 C 169.878906 322.984375 168.007812 350.527344 162.363281 371.269531 C 162.121094 372.15625 162.308594 373.109375 162.867188 373.839844 C 163.425781 374.574219 164.296875 375.003906 165.21875 375.003906 L 290.882812 375.003906 C 291.789062 375.003906 292.640625 374.589844 293.203125 373.882812 C 293.765625 373.175781 293.972656 372.25 293.765625 371.371094 C 293.628906 370.796875 280.359375 313.53125 284.554688 276.859375 C 287.28125 253.054688 295.351562 236.441406 303.898438 218.851562 C 309.105469 208.136719 314.492188 197.054688 319.164062 183.578125 C 323.660156 170.601562 330.648438 144.28125 326.929688 113.78125 Z M 313.570312 181.640625 C 309.011719 194.785156 303.707031 205.707031 298.574219 216.269531 C 289.800781 234.324219 281.515625 251.378906 278.675781 276.1875 C 274.933594 308.871094 284.28125 355.6875 287.1875 369.085938 L 169.035156 369.085938 C 174.066406 348.378906 175.191406 323.773438 167.585938 309.375 C 182.074219 307.796875 192.972656 305.597656 193.09375 305.570312 C 194.695312 305.246094 195.730469 303.683594 195.402344 302.082031 C 195.078125 300.480469 193.515625 299.449219 191.914062 299.773438 C 191.785156 299.800781 178.707031 302.441406 162.222656 303.972656 C 131.765625 306.800781 110.316406 304.199219 100.183594 296.449219 C 85.210938 284.992188 85.609375 268.460938 85.957031 253.878906 C 86.128906 246.707031 86.277344 240.511719 84.460938 235.777344 C 82.085938 229.585938 77.191406 225.070312 72.457031 220.703125 C 66.574219 215.265625 61.011719 210.136719 61.011719 202.367188 C 61.011719 194.402344 64.699219 188.578125 68.96875 181.832031 C 72.480469 176.28125 76.464844 169.992188 79.042969 161.511719 C 80.648438 156.234375 80.339844 148.738281 79.949219 139.246094 C 78.878906 113.363281 77.265625 74.246094 113.050781 38.640625 C 135.078125 16.722656 166.695312 6.046875 202.078125 8.574219 C 233.691406 10.835938 264.59375 23.453125 284.738281 42.332031 C 327.664062 82.542969 327.777344 140.660156 313.570312 181.640625 Z M 313.570312 181.640625 " fill-opacity="1" fill-rule="nonzero"/><path fill="#5271ff" d="M 265.449219 57.863281 C 261.671875 48.136719 252.820312 39.414062 241.351562 34.238281 C 226.769531 27.664062 210.910156 28.179688 200.929688 35.335938 C 190.941406 28.179688 175.085938 27.664062 160.507812 34.238281 C 149.039062 39.414062 140.1875 48.136719 136.410156 57.863281 C 121.339844 58.554688 109.289062 71.03125 109.289062 86.265625 C 109.289062 88.269531 109.5 90.257812 109.914062 92.199219 C 96.015625 97.375 86.539062 110.8125 86.539062 125.835938 C 86.539062 144.273438 100.78125 159.71875 118.839844 161.542969 C 119.757812 187.769531 141.390625 208.824219 167.84375 208.824219 C 180.238281 208.824219 191.875 204.285156 200.929688 195.984375 C 209.980469 204.285156 221.621094 208.824219 234.015625 208.824219 C 260.464844 208.824219 282.09375 187.773438 283.011719 161.542969 C 301.074219 159.722656 315.320312 144.277344 315.320312 125.835938 C 315.320312 110.816406 305.84375 97.378906 291.941406 92.203125 C 292.359375 90.25 292.570312 88.261719 292.570312 86.265625 C 292.570312 71.03125 280.519531 58.554688 265.449219 57.863281 Z M 247.679688 156.539062 C 231.453125 152.152344 215.488281 153.882812 203.886719 161.199219 L 203.886719 150.066406 C 214.507812 141.566406 233.183594 139.058594 250.027344 143.726562 C 248.039062 147.664062 247.25 151.949219 247.679688 156.539062 Z M 151.832031 143.726562 C 168.667969 139.058594 187.34375 141.570312 197.972656 150.066406 L 197.972656 161.199219 C 186.367188 153.886719 170.398438 152.152344 154.175781 156.539062 C 154.609375 151.949219 153.820312 147.664062 151.832031 143.726562 Z M 197.972656 142.851562 C 190.113281 137.996094 179.863281 135.445312 169.0625 135.445312 C 162.753906 135.445312 156.261719 136.316406 149.957031 138.105469 L 144.808594 79.878906 C 162.457031 74.703125 186.714844 77.714844 197.972656 86.539062 Z M 251.902344 138.105469 C 234.804688 133.253906 216.332031 135.160156 203.886719 142.851562 L 203.886719 86.539062 C 215.136719 77.710938 239.394531 74.703125 257.042969 79.878906 Z M 251.902344 138.105469 " fill-opacity="1" fill-rule="nonzero"/><path fill="#5271ff" d="M 215.894531 215.902344 C 207.363281 215.902344 200.425781 222.835938 200.425781 231.363281 C 200.425781 239.890625 207.363281 246.828125 215.894531 246.828125 C 224.421875 246.828125 231.359375 239.890625 231.359375 231.363281 C 231.359375 222.835938 224.421875 215.902344 215.894531 215.902344 Z M 215.894531 215.902344 " fill-opacity="1" fill-rule="nonzero"/><path fill="#5271ff" d="M 207.15625 253.902344 C 200.710938 253.902344 195.460938 259.148438 195.460938 265.59375 C 195.460938 272.042969 200.710938 277.285156 207.15625 277.285156 C 213.605469 277.285156 218.851562 272.042969 218.851562 265.59375 C 218.851562 259.148438 213.605469 253.902344 207.15625 253.902344 Z M 207.15625 253.902344 " fill-opacity="1" fill-rule="nonzero"/></svg>