<svg xmlns="http://www.w3.org/2000/svg" xmlns:xlink="http://www.w3.org/1999/xlink" width="500" zoomAndPan="magnify" viewBox="0 0 375 374.999991" height="500" preserveAspectRatio="xMidYMid meet" version="1.0"><defs><clipPath id="361b04769c"><path d="M 9.992188 9.992188 L 364.742188 9.992188 L 364.742188 364.742188 L 9.992188 364.742188 Z M 9.992188 9.992188 " clip-rule="nonzero"/></clipPath></defs><g clip-path="url(#361b04769c)"><path fill="#5271ff" d="M 291.257812 364.742188 L 83.472656 364.742188 C 42.890625 364.742188 9.992188 331.839844 9.992188 291.257812 L 9.992188 83.472656 C 9.992188 42.890625 42.890625 9.992188 83.472656 9.992188 L 291.265625 9.992188 C 331.839844 9.992188 364.742188 42.890625 364.742188 83.472656 L 364.742188 291.265625 C 364.742188 331.839844 331.839844 364.742188 291.257812 364.742188 Z M 291.257812 364.742188 " fill-opacity="1" fill-rule="nonzero"/></g><path fill="#ffffff" d="M 71.15625 71.15625 L 156.785156 71.15625 L 156.785156 156.785156 L 71.15625 156.785156 Z M 71.15625 71.15625 " fill-opacity="1" fill-rule="nonzero"/><path fill="#ffffff" d="M 113.96875 309.695312 C 86.949219 309.695312 65.039062 287.785156 65.039062 260.761719 C 65.039062 233.742188 86.949219 211.832031 113.96875 211.832031 C 140.992188 211.832031 162.902344 233.742188 162.902344 260.761719 C 162.902344 287.785156 140.992188 309.695312 113.96875 309.695312 Z M 113.96875 309.695312 " fill-opacity="1" fill-rule="nonzero"/><path fill="#ffffff" d="M 303.578125 156.785156 L 217.949219 156.785156 L 260.761719 71.15625 Z M 303.578125 156.785156 " fill-opacity="1" fill-rule="nonzero"/><path fill="#ffffff" d="M 260.761719 205.714844 L 211.832031 248.53125 L 230.523438 303.578125 L 291.003906 303.578125 L 309.695312 248.53125 Z M 260.761719 205.714844 " fill-opacity="1" fill-rule="nonzero"/></svg>