<svg xmlns="http://www.w3.org/2000/svg" xmlns:xlink="http://www.w3.org/1999/xlink" width="500" zoomAndPan="magnify" viewBox="0 0 375 374.999991" height="500" preserveAspectRatio="xMidYMid meet" version="1.0"><defs><clipPath id="9a7b6c9129"><path d="M 262 6.328125 L 375 6.328125 L 375 119 L 262 119 Z M 262 6.328125 " clip-rule="nonzero"/></clipPath><clipPath id="f15e32760e"><path d="M 37 218 L 163 218 L 163 368.578125 L 37 368.578125 Z M 37 218 " clip-rule="nonzero"/></clipPath><clipPath id="a1d84223fb"><path d="M 199 218 L 325 218 L 325 368.578125 L 199 368.578125 Z M 199 218 " clip-rule="nonzero"/></clipPath></defs><g clip-path="url(#9a7b6c9129)"><path fill="#5271ff" d="M 318.695312 6.328125 C 287.691406 6.328125 262.46875 31.542969 262.46875 62.539062 C 262.46875 93.535156 287.691406 118.75 318.695312 118.75 C 349.695312 118.75 374.917969 93.535156 374.917969 62.539062 C 374.917969 31.542969 349.695312 6.328125 318.695312 6.328125 Z M 299.953125 96.355469 L 283.039062 79.445312 L 291.875 70.613281 L 299.953125 78.691406 L 345.511719 33.140625 L 354.347656 41.972656 Z M 299.953125 96.355469 " fill-opacity="1" fill-rule="nonzero"/></g><g clip-path="url(#f15e32760e)"><path fill="#5271ff" d="M 158.648438 268.648438 L 156.261719 268.648438 C 145.929688 268.648438 137.523438 277.054688 137.523438 287.382812 L 137.523438 312.367188 L 125.027344 312.367188 L 125.027344 231.171875 C 125.027344 227.730469 122.222656 224.925781 118.78125 224.925781 C 115.335938 224.925781 112.53125 227.730469 112.53125 231.171875 L 112.53125 299.875 L 100.039062 299.875 L 100.039062 224.925781 C 100.039062 221.484375 97.234375 218.679688 93.789062 218.679688 C 90.347656 218.679688 87.542969 221.484375 87.542969 224.925781 L 87.542969 299.875 L 75.046875 299.875 L 75.046875 237.417969 C 75.046875 233.976562 72.246094 231.171875 68.800781 231.171875 C 65.355469 231.171875 62.554688 233.976562 62.554688 237.417969 L 62.554688 299.875 L 50.058594 299.875 L 50.058594 256.15625 C 50.058594 252.710938 47.257812 249.910156 43.8125 249.910156 C 40.367188 249.910156 37.566406 252.710938 37.566406 256.15625 L 37.566406 312.367188 C 37.566406 343.363281 62.789062 368.578125 93.789062 368.578125 C 124.792969 368.578125 150.015625 343.363281 150.015625 312.367188 L 150.015625 308.722656 C 150.015625 301.972656 151.613281 295.210938 154.632812 289.171875 L 162.101562 274.234375 C 162.371094 273.699219 162.511719 273.105469 162.511719 272.507812 C 162.511719 270.378906 160.777344 268.648438 158.648438 268.648438 Z M 158.648438 268.648438 " fill-opacity="1" fill-rule="nonzero"/></g><g clip-path="url(#a1d84223fb)"><path fill="#5271ff" d="M 318.695312 249.910156 C 315.25 249.910156 312.445312 252.710938 312.445312 256.15625 L 312.445312 299.875 L 299.953125 299.875 L 299.953125 237.417969 C 299.953125 233.976562 297.148438 231.171875 293.703125 231.171875 C 290.257812 231.171875 287.457031 233.976562 287.457031 237.417969 L 287.457031 299.875 L 274.960938 299.875 L 274.960938 224.925781 C 274.960938 221.484375 272.160156 218.679688 268.714844 218.679688 C 265.269531 218.679688 262.46875 221.484375 262.46875 224.925781 L 262.46875 299.875 L 249.972656 299.875 L 249.972656 231.171875 C 249.972656 227.730469 247.171875 224.925781 243.726562 224.925781 C 240.28125 224.925781 237.476562 227.730469 237.476562 231.171875 L 237.476562 312.367188 L 224.984375 312.367188 L 224.984375 287.382812 C 224.984375 277.054688 216.574219 268.648438 206.242188 268.648438 L 203.855469 268.648438 C 201.726562 268.648438 199.996094 270.378906 199.996094 272.507812 C 199.996094 273.101562 200.136719 273.699219 200.402344 274.234375 L 207.871094 289.167969 C 210.890625 295.210938 212.488281 301.96875 212.488281 308.722656 L 212.488281 312.367188 C 212.488281 343.363281 237.710938 368.578125 268.714844 368.578125 C 299.71875 368.578125 324.941406 343.363281 324.941406 312.367188 L 324.941406 256.15625 C 324.941406 252.710938 322.136719 249.910156 318.695312 249.910156 Z M 318.695312 249.910156 " fill-opacity="1" fill-rule="nonzero"/></g><path fill="#5271ff" d="M 106.285156 131.242188 L 131.273438 131.242188 L 131.273438 156.226562 L 106.285156 156.226562 Z M 106.285156 131.242188 " fill-opacity="1" fill-rule="nonzero"/><path fill="#5271ff" d="M 343.683594 168.714844 L 18.824219 168.714844 C 15.378906 168.714844 12.574219 171.519531 12.574219 174.960938 L 12.574219 274.894531 C 12.574219 278.335938 15.378906 281.136719 18.824219 281.136719 L 25.070312 281.136719 L 25.070312 256.15625 C 25.070312 245.824219 33.476562 237.417969 43.8125 237.417969 C 46 237.417969 48.105469 237.800781 50.058594 238.492188 L 50.058594 237.417969 C 50.058594 227.085938 58.46875 218.679688 68.800781 218.679688 C 71.242188 218.679688 73.570312 219.15625 75.710938 220.007812 C 77.878906 212.054688 85.160156 206.191406 93.789062 206.191406 C 100.417969 206.191406 106.25 209.652344 109.582031 214.855469 C 112.300781 213.320312 115.4375 212.4375 118.78125 212.4375 C 129.113281 212.4375 137.523438 220.839844 137.523438 231.171875 L 137.523438 262.417969 C 142.746094 258.488281 149.238281 256.15625 156.261719 256.15625 L 158.648438 256.15625 C 167.667969 256.15625 175.003906 263.492188 175.003906 272.507812 C 175.003906 275.03125 174.40625 277.558594 173.28125 279.820312 L 172.621094 281.136719 L 189.886719 281.136719 L 189.226562 279.820312 C 188.097656 277.558594 187.5 275.03125 187.5 272.507812 C 187.5 263.492188 194.835938 256.15625 203.855469 256.15625 L 206.242188 256.15625 C 213.269531 256.15625 219.757812 258.488281 224.984375 262.417969 L 224.984375 231.171875 C 224.984375 220.839844 233.390625 212.4375 243.726562 212.4375 C 247.066406 212.4375 250.203125 213.320312 252.921875 214.855469 C 256.257812 209.652344 262.085938 206.191406 268.714844 206.191406 C 277.34375 206.191406 284.628906 212.054688 286.796875 220.007812 C 288.9375 219.15625 291.265625 218.679688 293.703125 218.679688 C 304.039062 218.679688 312.445312 227.085938 312.445312 237.417969 L 312.445312 238.492188 C 314.402344 237.800781 316.503906 237.417969 318.695312 237.417969 C 329.027344 237.417969 337.433594 245.824219 337.433594 256.15625 L 337.433594 281.136719 L 343.683594 281.136719 C 347.128906 281.136719 349.929688 278.335938 349.929688 274.894531 L 349.929688 174.960938 C 349.929688 171.519531 347.128906 168.714844 343.683594 168.714844 Z M 37.566406 218.679688 L 25.070312 218.679688 L 25.070312 206.191406 L 37.566406 206.191406 Z M 37.566406 193.699219 L 25.070312 193.699219 L 25.070312 181.207031 L 37.566406 181.207031 Z M 62.554688 218.679688 L 50.058594 218.679688 L 50.058594 206.191406 L 62.554688 206.191406 Z M 62.554688 193.699219 L 50.058594 193.699219 L 50.058594 181.207031 L 62.554688 181.207031 Z M 87.542969 193.699219 L 75.046875 193.699219 L 75.046875 181.207031 L 87.542969 181.207031 Z M 112.53125 193.699219 L 100.039062 193.699219 L 100.039062 181.207031 L 112.53125 181.207031 Z M 137.523438 193.699219 L 125.027344 193.699219 L 125.027344 181.207031 L 137.523438 181.207031 Z M 162.511719 243.664062 L 150.015625 243.664062 L 150.015625 231.171875 L 162.511719 231.171875 Z M 162.511719 218.679688 L 150.015625 218.679688 L 150.015625 206.191406 L 162.511719 206.191406 Z M 162.511719 193.699219 L 150.015625 193.699219 L 150.015625 181.207031 L 162.511719 181.207031 Z M 187.5 243.664062 L 175.003906 243.664062 L 175.003906 231.171875 L 187.5 231.171875 Z M 187.5 218.679688 L 175.003906 218.679688 L 175.003906 206.191406 L 187.5 206.191406 Z M 187.5 193.699219 L 175.003906 193.699219 L 175.003906 181.207031 L 187.5 181.207031 Z M 212.488281 243.664062 L 199.996094 243.664062 L 199.996094 231.171875 L 212.488281 231.171875 Z M 212.488281 218.679688 L 199.996094 218.679688 L 199.996094 206.191406 L 212.488281 206.191406 Z M 212.488281 193.699219 L 199.996094 193.699219 L 199.996094 181.207031 L 212.488281 181.207031 Z M 237.476562 193.699219 L 224.984375 193.699219 L 224.984375 181.207031 L 237.476562 181.207031 Z M 262.46875 193.699219 L 249.972656 193.699219 L 249.972656 181.207031 L 262.46875 181.207031 Z M 287.457031 193.699219 L 274.960938 193.699219 L 274.960938 181.207031 L 287.457031 181.207031 Z M 312.445312 218.679688 L 299.953125 218.679688 L 299.953125 206.191406 L 312.445312 206.191406 Z M 312.445312 193.699219 L 299.953125 193.699219 L 299.953125 181.207031 L 312.445312 181.207031 Z M 337.433594 218.679688 L 324.941406 218.679688 L 324.941406 206.191406 L 337.433594 206.191406 Z M 337.433594 193.699219 L 324.941406 193.699219 L 324.941406 181.207031 L 337.433594 181.207031 Z M 337.433594 193.699219 " fill-opacity="1" fill-rule="nonzero"/><path fill="#5271ff" d="M 106.285156 93.769531 C 109.730469 93.769531 112.53125 96.570312 112.53125 100.011719 L 112.53125 118.75 L 125.027344 118.75 L 125.027344 100.011719 C 125.027344 89.679688 116.617188 81.277344 106.285156 81.277344 L 18.824219 81.277344 C 15.378906 81.277344 12.574219 78.472656 12.574219 75.03125 C 12.574219 71.585938 15.378906 68.785156 18.824219 68.785156 L 250.257812 68.785156 C 250.074219 66.726562 249.972656 64.644531 249.972656 62.539062 C 249.972656 60.433594 250.074219 58.351562 250.257812 56.292969 L 18.824219 56.292969 C 8.488281 56.292969 0.0820312 64.699219 0.0820312 75.03125 C 0.0820312 85.363281 8.488281 93.769531 18.824219 93.769531 Z M 106.285156 93.769531 " fill-opacity="1" fill-rule="nonzero"/></svg>