<svg xmlns="http://www.w3.org/2000/svg" xmlns:xlink="http://www.w3.org/1999/xlink" width="500" zoomAndPan="magnify" viewBox="0 0 375 374.999991" height="500" preserveAspectRatio="xMidYMid meet" version="1.0"><defs><clipPath id="839378dcb2"><path d="M 0.414062 5.910156 L 362.992188 5.910156 L 362.992188 368.910156 L 0.414062 368.910156 Z M 0.414062 5.910156 " clip-rule="nonzero"/></clipPath></defs><g clip-path="url(#839378dcb2)"><path fill="#5271ff" d="M 328.609375 152.796875 C 312.527344 152.796875 299.152344 163.882812 295.316406 178.804688 L 228.769531 178.804688 C 227.609375 172.296875 224.933594 166.171875 221.519531 160.824219 L 268.539062 113.773438 C 273.53125 116.832031 279.65625 118.734375 285.777344 118.734375 C 304.890625 118.734375 320.582031 103.074219 320.582031 83.929688 C 320.582031 64.820312 304.890625 49.125 285.777344 49.125 C 266.636719 49.125 250.941406 64.820312 250.941406 83.929688 C 250.941406 90.441406 252.875 96.175781 255.9375 101.140625 L 208.5 148.191406 C 203.148438 144.386719 197.027344 142.097656 190.515625 140.9375 L 190.515625 74.003906 C 205.4375 70.167969 216.136719 56.796875 216.136719 40.714844 C 216.136719 21.605469 200.476562 5.910156 181.332031 5.910156 C 162.222656 5.910156 146.527344 21.605469 146.527344 40.714844 C 146.527344 56.796875 157.613281 70.167969 172.148438 74.003906 L 172.148438 140.550781 C 165.671875 141.710938 159.546875 144.386719 154.199219 147.835938 L 107.5 101.140625 C 110.5625 96.175781 112.496094 90.054688 112.496094 83.929688 C 112.496094 64.820312 96.800781 49.125 77.691406 49.125 C 58.550781 49.125 42.886719 64.820312 42.886719 83.929688 C 42.886719 103.074219 58.550781 118.734375 77.691406 118.734375 C 84.203125 118.734375 89.90625 116.832031 94.902344 113.773438 L 142.339844 160.824219 C 138.503906 166.171875 136.214844 172.296875 135.054688 178.804688 L 68.507812 178.804688 C 64.671875 163.882812 51.296875 153.183594 35.21875 153.183594 C 16.105469 153.183594 0.414062 168.847656 0.414062 187.988281 C 0.414062 207.101562 16.105469 222.792969 35.21875 222.792969 C 51.296875 222.792969 64.671875 211.707031 68.507812 196.789062 L 135.054688 196.789062 C 136.214844 203.265625 138.890625 209.386719 142.339844 214.769531 L 95.289062 261.820312 C 90.292969 258.757812 84.203125 256.824219 78.078125 256.824219 C 58.9375 256.824219 43.273438 272.519531 43.273438 291.664062 C 43.273438 310.773438 58.9375 326.46875 78.078125 326.46875 C 97.1875 326.46875 112.882812 310.773438 112.882812 291.664062 C 112.882812 285.121094 110.949219 279.417969 107.886719 274.421875 L 154.9375 226.984375 C 160.320312 230.820312 166.410156 233.105469 172.921875 234.265625 L 172.921875 300.816406 C 158 304.648438 147.300781 318.023438 147.300781 334.105469 C 147.300781 353.246094 162.996094 368.910156 182.105469 368.910156 C 201.25 368.910156 216.910156 353.246094 216.910156 334.105469 C 216.910156 318.023438 205.824219 304.648438 191.289062 300.816406 L 191.289062 234.652344 C 197.800781 233.492188 203.921875 230.820312 209.273438 227.371094 L 256.324219 274.421875 C 253.261719 279.417969 251.328125 285.539062 251.328125 291.628906 C 251.328125 310.773438 267.023438 326.46875 286.132812 326.46875 C 305.277344 326.46875 320.96875 310.773438 320.96875 291.628906 C 320.96875 272.519531 305.277344 256.824219 286.132812 256.824219 C 279.65625 256.824219 273.917969 258.757812 268.925781 261.820312 L 221.132812 214.382812 C 224.933594 209 227.253906 202.910156 228.382812 196.402344 L 294.964844 196.402344 C 298.765625 211.320312 312.171875 222.019531 328.222656 222.019531 C 347.363281 222.019531 363.027344 206.328125 363.027344 187.214844 C 363.027344 168.105469 347.71875 152.796875 328.609375 152.796875 " fill-opacity="1" fill-rule="nonzero"/></g></svg>