<svg xmlns="http://www.w3.org/2000/svg" xmlns:xlink="http://www.w3.org/1999/xlink" width="500" zoomAndPan="magnify" viewBox="0 0 375 374.999991" height="500" preserveAspectRatio="xMidYMid meet" version="1.0"><defs><clipPath id="5e5b423334"><path d="M 0 1.332031 L 375 1.332031 L 375 375 L 0 375 Z M 0 1.332031 " clip-rule="nonzero"/></clipPath></defs><g clip-path="url(#5e5b423334)"><path fill="#5271ff" d="M 187.5 7.542969 C 87.535156 7.542969 6.210938 88.867188 6.210938 188.832031 C 6.210938 288.796875 87.535156 370.121094 187.5 370.121094 C 287.464844 370.121094 368.789062 288.796875 368.789062 188.832031 C 368.789062 88.867188 287.464844 7.542969 187.5 7.542969 Z M 187.5 376.332031 C 162.1875 376.332031 137.632812 371.375 114.515625 361.597656 C 92.1875 352.152344 72.136719 338.632812 54.917969 321.414062 C 37.699219 304.195312 24.179688 284.144531 14.734375 261.816406 C 4.957031 238.699219 0 214.144531 0 188.832031 C 0 163.519531 4.957031 138.964844 14.734375 115.847656 C 24.179688 93.519531 37.699219 73.46875 54.917969 56.25 C 72.136719 39.03125 92.1875 25.511719 114.515625 16.066406 C 137.632812 6.289062 162.1875 1.332031 187.5 1.332031 C 212.8125 1.332031 237.367188 6.289062 260.484375 16.066406 C 282.8125 25.511719 302.863281 39.03125 320.082031 56.25 C 337.300781 73.46875 350.820312 93.519531 360.265625 115.847656 C 370.042969 138.964844 375 163.519531 375 188.832031 C 375 214.144531 370.042969 238.699219 360.265625 261.816406 C 350.820312 284.144531 337.300781 304.195312 320.082031 321.414062 C 302.863281 338.632812 282.8125 352.152344 260.484375 361.597656 C 237.367188 371.375 212.8125 376.332031 187.5 376.332031 " fill-opacity="1" fill-rule="nonzero"/></g><path fill="#5271ff" d="M 18.5 188.832031 C 18.5 95.496094 94.164062 19.832031 187.5 19.832031 C 280.835938 19.832031 356.5 95.496094 356.5 188.832031 C 356.5 282.167969 280.835938 357.835938 187.5 357.835938 C 94.164062 357.835938 18.5 282.167969 18.5 188.832031 " fill-opacity="1" fill-rule="nonzero"/><path fill="#ffffff" d="M 136.035156 255.003906 L 150.738281 255.003906 L 121.332031 210.890625 L 121.332031 240.296875 C 121.332031 248.417969 127.914062 255.003906 136.035156 255.003906 " fill-opacity="1" fill-rule="nonzero"/><path fill="#ffffff" d="M 238.964844 122.664062 L 224.261719 122.664062 L 253.667969 166.777344 L 253.667969 137.367188 C 253.667969 129.246094 247.085938 122.664062 238.964844 122.664062 " fill-opacity="1" fill-rule="nonzero"/><path fill="#ffffff" d="M 268.375 166.777344 L 209.554688 166.777344 L 209.554688 107.957031 C 209.554688 91.707031 196.394531 78.550781 180.148438 78.550781 L 106.625 78.550781 C 90.375 78.550781 77.21875 91.707031 77.21875 107.957031 L 77.21875 181.480469 C 77.21875 197.726562 90.375 210.890625 106.625 210.890625 L 165.445312 210.890625 L 165.445312 269.707031 C 165.445312 285.957031 178.605469 299.117188 194.851562 299.117188 L 268.375 299.117188 C 284.625 299.117188 297.78125 285.957031 297.78125 269.707031 L 297.78125 196.183594 C 297.78125 179.9375 284.625 166.777344 268.375 166.777344 " fill-opacity="1" fill-rule="nonzero"/><path fill="#5271ff" d="M 150.738281 258.105469 L 136.035156 258.105469 C 126.214844 258.105469 118.226562 250.117188 118.226562 240.296875 L 118.226562 210.890625 C 118.226562 209.175781 119.613281 207.785156 121.332031 207.785156 C 123.046875 207.785156 124.433594 209.175781 124.433594 210.890625 L 124.433594 240.296875 C 124.433594 246.695312 129.636719 251.898438 136.035156 251.898438 L 150.738281 251.898438 C 152.453125 251.898438 153.84375 253.289062 153.84375 255.003906 C 153.84375 256.71875 152.453125 258.105469 150.738281 258.105469 " fill-opacity="1" fill-rule="nonzero"/><path fill="#5271ff" d="M 253.667969 169.878906 C 251.953125 169.878906 250.566406 168.492188 250.566406 166.777344 L 250.566406 137.367188 C 250.566406 130.96875 245.363281 125.765625 238.964844 125.765625 L 224.261719 125.765625 C 222.546875 125.765625 221.15625 124.378906 221.15625 122.664062 C 221.15625 120.949219 222.546875 119.558594 224.261719 119.558594 L 238.964844 119.558594 C 248.785156 119.558594 256.773438 127.546875 256.773438 137.367188 L 256.773438 166.777344 C 256.773438 168.492188 255.386719 169.878906 253.667969 169.878906 " fill-opacity="1" fill-rule="nonzero"/><path fill="#5271ff" d="M 130.15625 169.878906 C 129.90625 169.878906 129.652344 169.851562 129.398438 169.789062 C 127.734375 169.371094 126.726562 167.6875 127.140625 166.023438 L 137.632812 124.046875 C 138.292969 121.40625 140.660156 119.558594 143.386719 119.558594 C 146.113281 119.558594 148.480469 121.40625 149.140625 124.046875 L 159.632812 166.023438 C 160.046875 167.6875 159.039062 169.371094 157.375 169.789062 C 155.710938 170.207031 154.023438 169.191406 153.609375 167.527344 L 143.386719 126.640625 L 133.164062 167.527344 C 132.8125 168.941406 131.546875 169.878906 130.15625 169.878906 " fill-opacity="1" fill-rule="nonzero"/><path fill="#5271ff" d="M 152.328125 152.710938 L 134.445312 152.710938 C 132.730469 152.710938 131.339844 151.320312 131.339844 149.605469 C 131.339844 147.890625 132.730469 146.5 134.445312 146.5 L 152.328125 146.5 C 154.042969 146.5 155.433594 147.890625 155.433594 149.605469 C 155.433594 151.320312 154.042969 152.710938 152.328125 152.710938 " fill-opacity="1" fill-rule="nonzero"/><path fill="#5271ff" d="M 244.847656 258.105469 L 218.378906 258.105469 C 217.261719 258.105469 216.230469 257.507812 215.675781 256.53125 C 215.125 255.558594 215.140625 254.363281 215.714844 253.40625 L 239.363281 213.992188 L 218.378906 213.992188 C 216.664062 213.992188 215.273438 212.605469 215.273438 210.890625 C 215.273438 209.175781 216.664062 207.785156 218.378906 207.785156 L 244.847656 207.785156 C 245.96875 207.785156 247 208.386719 247.550781 209.359375 C 248.101562 210.332031 248.085938 211.527344 247.511719 212.484375 L 223.863281 251.898438 L 244.847656 251.898438 C 246.5625 251.898438 247.953125 253.289062 247.953125 255.003906 C 247.953125 256.71875 246.5625 258.105469 244.847656 258.105469 " fill-opacity="1" fill-rule="nonzero"/><path fill="#5271ff" d="M 168.546875 213.992188 L 168.546875 269.707031 C 168.546875 284.210938 180.347656 296.011719 194.851562 296.011719 L 268.375 296.011719 C 282.878906 296.011719 294.679688 284.210938 294.679688 269.707031 L 294.679688 196.183594 C 294.679688 181.679688 282.878906 169.878906 268.375 169.878906 L 212.660156 169.878906 L 212.660156 181.480469 C 212.660156 199.410156 198.078125 213.992188 180.148438 213.992188 Z M 268.375 302.21875 L 194.851562 302.21875 C 176.921875 302.21875 162.339844 287.636719 162.339844 269.707031 L 162.339844 210.890625 C 162.339844 209.175781 163.726562 207.785156 165.445312 207.785156 L 180.148438 207.785156 C 194.652344 207.785156 206.453125 195.984375 206.453125 181.480469 L 206.453125 166.777344 C 206.453125 165.0625 207.839844 163.671875 209.554688 163.671875 L 268.375 163.671875 C 286.304688 163.671875 300.886719 178.253906 300.886719 196.183594 L 300.886719 269.707031 C 300.886719 287.636719 286.304688 302.21875 268.375 302.21875 " fill-opacity="1" fill-rule="nonzero"/><path fill="#5271ff" d="M 106.625 81.652344 C 92.121094 81.652344 80.320312 93.453125 80.320312 107.957031 L 80.320312 181.480469 C 80.320312 195.984375 92.121094 207.785156 106.625 207.785156 L 180.148438 207.785156 C 194.652344 207.785156 206.453125 195.984375 206.453125 181.480469 L 206.453125 107.957031 C 206.453125 93.453125 194.652344 81.652344 180.148438 81.652344 Z M 180.148438 213.992188 L 106.625 213.992188 C 88.695312 213.992188 74.113281 199.410156 74.113281 181.480469 L 74.113281 107.957031 C 74.113281 90.027344 88.695312 75.445312 106.625 75.445312 L 180.148438 75.445312 C 198.078125 75.445312 212.660156 90.027344 212.660156 107.957031 L 212.660156 181.480469 C 212.660156 199.410156 198.078125 213.992188 180.148438 213.992188 " fill-opacity="1" fill-rule="nonzero"/></svg>